<svg width="374" height="460" viewBox="0 0 374 460" fill="none" xmlns="http://www.w3.org/2000/svg">
<path d="M186.896 0.000976562C192.129 0.0667355 197.295 1.1712 202.084 3.24902C206.873 5.32687 211.189 8.33504 214.771 12.0938C239.598 38.0639 289.049 83.0481 341.087 92.2607C349.796 93.6431 357.746 97.9664 363.576 104.489C369.407 111.012 372.754 119.329 373.047 128.017C373.972 165.779 370.89 203.535 363.852 240.666V240.679C342.175 352.025 285.253 427.117 199.241 457.833C195.253 459.272 191.039 460.005 186.792 460C182.439 460.006 178.115 459.285 174.006 457.869C87.9657 427.928 31.0985 352.833 9.51953 240.689L9.51172 240.672C2.57522 203.567 -0.581811 165.873 0.0878906 128.149C0.378208 119.458 3.71374 111.133 9.52734 104.591C15.3409 98.0485 23.2741 93.6917 31.9785 92.2607C84.0165 83.048 133.468 38.064 158.316 12.0713C161.959 8.23024 166.37 5.17413 171.271 3.09668C176.172 1.01916 181.457 -0.0345911 186.792 0.000976562L186.846 0.0117188L186.896 0.000976562Z" fill="url(#paint0_linear_376_29)"/>
<path d="M186.896 0.000976562C192.129 0.0667355 197.295 1.1712 202.084 3.24902C206.873 5.32687 211.189 8.33504 214.771 12.0938C239.598 38.0639 289.049 83.0481 341.087 92.2607C349.796 93.6431 357.746 97.9664 363.576 104.489C369.407 111.012 372.754 119.329 373.047 128.017C373.972 165.779 370.89 203.535 363.852 240.666V240.679C342.175 352.025 285.253 427.117 199.241 457.833C195.253 459.272 191.039 460.005 186.792 460C182.439 460.006 178.115 459.285 174.006 457.869C87.9657 427.928 31.0985 352.833 9.51953 240.689L9.51172 240.672C2.57522 203.567 -0.581811 165.873 0.0878906 128.149C0.378208 119.458 3.71374 111.133 9.52734 104.591C15.3409 98.0485 23.2741 93.6917 31.9785 92.2607C84.0165 83.048 133.468 38.064 158.316 12.0713C161.959 8.23024 166.37 5.17413 171.271 3.09668C176.172 1.01916 181.457 -0.0345911 186.792 0.000976562L186.846 0.0117188L186.896 0.000976562Z" stroke="black"/>
<path d="M186.896 0.000976562C192.129 0.0667355 197.295 1.1712 202.084 3.24902C206.873 5.32687 211.189 8.33504 214.771 12.0938C239.598 38.0639 289.049 83.0481 341.087 92.2607C349.796 93.6431 357.746 97.9664 363.576 104.489C369.407 111.012 372.754 119.329 373.047 128.017C373.972 165.779 370.89 203.535 363.852 240.666V240.679C342.175 352.025 285.253 427.117 199.241 457.833C195.253 459.272 191.039 460.005 186.792 460C182.439 460.006 178.115 459.285 174.006 457.869C87.9657 427.928 31.0985 352.833 9.51953 240.689L9.51172 240.672C2.57522 203.567 -0.581811 165.873 0.0878906 128.149C0.378208 119.458 3.71374 111.133 9.52734 104.591C15.3409 98.0485 23.2741 93.6917 31.9785 92.2607C84.0165 83.048 133.468 38.064 158.316 12.0713C161.959 8.23024 166.37 5.17413 171.271 3.09668C176.172 1.01916 181.457 -0.0345911 186.792 0.000976562L186.846 0.0117188L186.896 0.000976562Z" stroke="black" stroke-opacity="0.2"/>
<path d="M299.857 258.181L258.419 279.783L257.612 280.203V331.808L259.806 330.664L301.245 309.061L302.051 308.641V257.037L299.857 258.181ZM251.489 224.738C249.969 224.738 248.469 225.088 247.109 225.762L247.094 225.77L247.078 225.778L210.33 245.066L207.805 246.392L210.328 247.722L250.594 268.938L251.29 269.305L251.987 268.941L292.645 247.725L295.186 246.398L292.647 245.066L255.899 225.778L255.884 225.77L255.868 225.762C254.508 225.088 253.009 224.738 251.489 224.738ZM244.975 280.203L244.178 279.78L202.738 257.8L200.535 256.631V308.641L201.342 309.061L242.781 330.664L244.975 331.808V280.203ZM187.507 246.746L187.506 246.713C187.454 245.567 187.751 244.432 188.358 243.45C188.966 242.469 189.859 241.685 190.925 241.203L190.965 241.186L191.004 241.165L241.023 214.943C244.201 213.338 247.721 212.5 251.293 212.5C254.642 212.5 257.946 213.236 260.964 214.651L261.563 214.943L311.583 241.165L311.679 241.215C312.579 241.733 313.329 242.467 313.855 243.351C314.405 244.273 314.692 245.323 314.688 246.39V307.73C314.658 310.22 313.957 312.659 312.656 314.797C311.355 316.935 309.5 318.696 307.279 319.897L253.755 347.655C252.81 348.123 251.766 348.368 250.707 348.368C249.648 348.368 248.603 348.123 247.658 347.655L194.915 319.897L194.906 319.893L194.488 319.668C192.424 318.509 190.697 316.844 189.475 314.835C188.171 312.692 187.49 310.238 187.507 307.741V246.746Z" stroke="url(#paint1_linear_376_29)" stroke-width="3"/>
<path d="M235.367 151.332L193.928 172.934L193.122 173.354V224.958L195.315 223.815L236.755 202.211L237.56 201.792V150.188L235.367 151.332ZM186.999 117.889C185.479 117.889 183.979 118.239 182.619 118.913L182.603 118.92L182.588 118.929L145.84 138.217L143.314 139.542L145.838 140.873L186.103 162.089L186.799 162.456L187.497 162.092L228.154 140.875L230.695 139.549L228.157 138.217L191.409 118.929L191.393 118.92L191.378 118.913C190.018 118.239 188.518 117.889 186.999 117.889ZM180.484 173.354L179.687 172.931L138.248 150.951L136.045 149.782V201.792L136.851 202.211L178.291 223.815L180.484 224.958V173.354ZM123.016 139.897L123.015 139.864C122.964 138.718 123.26 137.582 123.868 136.601C124.476 135.62 125.368 134.836 126.434 134.354L126.474 134.336L126.513 134.316L176.533 108.094C179.71 106.489 183.231 105.651 186.802 105.651C190.151 105.651 193.455 106.387 196.473 107.802L197.073 108.094L247.092 134.316L247.188 134.366C248.089 134.884 248.839 135.618 249.365 136.501C249.914 137.424 250.201 138.474 250.198 139.541V200.881C250.167 203.371 249.466 205.81 248.166 207.948C246.865 210.086 245.01 211.847 242.789 213.048L189.264 240.806C188.319 241.274 187.276 241.519 186.216 241.519C185.157 241.519 184.113 241.274 183.168 240.806L130.424 213.048L130.416 213.043L129.998 212.819C127.933 211.66 126.207 209.995 124.984 207.986C123.68 205.843 122.999 203.389 123.016 200.892V139.897Z" fill="#9386EA" stroke="url(#paint2_linear_376_29)" stroke-width="3"/>
<path d="M171.857 258.181L130.419 279.783L129.612 280.203V331.808L131.806 330.664L173.245 309.061L174.051 308.641V257.037L171.857 258.181ZM123.489 224.738C121.969 224.738 120.469 225.088 119.109 225.762L119.094 225.77L119.078 225.778L82.3301 245.066L79.8047 246.392L82.3281 247.722L122.594 268.938L123.29 269.305L123.987 268.941L164.645 247.725L167.186 246.398L164.647 245.066L127.899 225.778L127.884 225.77L127.868 225.762C126.508 225.088 125.009 224.738 123.489 224.738ZM116.975 280.203L116.178 279.78L74.7383 257.8L72.5352 256.631V308.641L73.3418 309.061L114.781 330.664L116.975 331.808V280.203ZM59.5068 246.746L59.5059 246.713C59.4545 245.567 59.7507 244.432 60.3584 243.45C60.9662 242.469 61.8587 241.685 62.9248 241.203L62.9648 241.186L63.0039 241.165L113.023 214.943C116.201 213.338 119.721 212.5 123.293 212.5C126.642 212.5 129.946 213.236 132.964 214.651L133.563 214.943L183.583 241.165L183.679 241.215C184.579 241.733 185.329 242.467 185.855 243.351C186.405 244.273 186.692 245.323 186.688 246.39V307.73C186.658 310.22 185.957 312.659 184.656 314.797C183.355 316.935 181.5 318.696 179.279 319.897L125.755 347.655C124.81 348.123 123.766 348.368 122.707 348.368C121.648 348.368 120.603 348.123 119.658 347.655L66.915 319.897L66.9062 319.893L66.4883 319.668C64.4239 318.509 62.6971 316.844 61.4746 314.835C60.1707 312.692 59.4901 310.238 59.5068 307.741V246.746Z" stroke="url(#paint3_linear_376_29)" stroke-width="3"/>
<defs>
<linearGradient id="paint0_linear_376_29" x1="186.604" y1="0" x2="186.604" y2="460" gradientUnits="userSpaceOnUse">
<stop stop-color="#DDDDDD"/>
<stop offset="0.432692" stop-color="#9386EA"/>
<stop offset="1" stop-color="#2200FF"/>
</linearGradient>
<linearGradient id="paint1_linear_376_29" x1="186" y1="241.377" x2="316.189" y2="319.491" gradientUnits="userSpaceOnUse">
<stop stop-color="#2706FF"/>
<stop offset="1" stop-color="#00FF66"/>
</linearGradient>
<linearGradient id="paint2_linear_376_29" x1="186.604" y1="104.151" x2="186.604" y2="243.019" gradientUnits="userSpaceOnUse">
<stop stop-color="#FF6466"/>
<stop offset="1" stop-color="#2706FF"/>
</linearGradient>
<linearGradient id="paint3_linear_376_29" x1="183.849" y1="245.717" x2="62.3396" y2="315.151" gradientUnits="userSpaceOnUse">
<stop stop-color="#2706FF"/>
<stop offset="1" stop-color="#FFFF00"/>
</linearGradient>
</defs>
</svg>
