<svg width="118" height="47" viewBox="0 0 118 47" fill="none" xmlns="http://www.w3.org/2000/svg">
<path d="M69.159 13.7762C69.0084 11.9751 68.362 10.5759 67.2198 9.57862C66.0777 8.58131 64.5276 8.08266 62.5696 8.08266C61.2392 8.08266 60.1159 8.30594 59.1997 8.75249C58.2834 9.18417 57.5806 9.78702 57.0911 10.561C56.6141 11.3351 56.3757 12.2133 56.3757 13.1957C56.3506 14.0144 56.4949 14.7289 56.8087 15.3392C57.135 15.9495 57.5806 16.4779 58.1454 16.9245C58.7102 17.3561 59.3628 17.7357 60.1033 18.0632C60.8439 18.3758 61.6346 18.6437 62.4755 18.867L65.9396 19.8494C67.6215 20.296 69.1652 20.8914 70.571 21.6356C71.9767 22.3799 73.1941 23.2953 74.2233 24.3819C75.2525 25.4686 76.0495 26.7487 76.6143 28.2223C77.1917 29.696 77.4866 31.3854 77.4992 33.2907C77.4866 36.0892 76.8842 38.5154 75.6918 40.5696C74.512 42.6089 72.8051 44.1941 70.571 45.3254C68.3494 46.4418 65.6698 47 62.532 47C59.4193 47 56.7083 46.4344 54.3989 45.3031C52.102 44.1718 50.3072 42.4972 49.0145 40.2793C47.7342 38.0466 47.0628 35.2854 47 31.9957H54.8884C54.9762 33.5289 55.3465 34.809 55.9991 35.8361C56.6643 36.8483 57.5492 37.6149 58.6537 38.1359C59.7707 38.642 61.0321 38.895 62.4379 38.895C63.8185 38.895 65.0171 38.6568 66.0337 38.1805C67.0629 37.7042 67.8599 37.0418 68.4247 36.1933C68.9895 35.3449 69.2719 34.3699 69.2719 33.2684C69.2719 32.2413 69.0146 31.378 68.5 30.6784C67.998 29.9788 67.2575 29.3834 66.2785 28.8922C65.3121 28.4009 64.126 27.9544 62.7203 27.5525L58.5219 26.3021C55.2712 25.3644 52.7045 23.8982 50.8218 21.9036C48.9391 19.9089 48.0041 17.2222 48.0166 13.8432C48.0041 11.0746 48.6254 8.65574 49.8805 6.5867C51.1481 4.51766 52.8865 2.90261 55.0955 1.74157C57.3045 0.580523 59.8147 0 62.6261 0C65.4878 0 67.9854 0.580523 70.1191 1.74157C72.2654 2.90261 73.9347 4.51766 75.127 6.5867C76.3194 8.65574 76.9344 11.0523 76.972 13.7762H69.159Z" fill="white"/>
<path d="M89.9483 0.625178L99.2675 35.3672H99.6252L108.963 0.625178H118L104.708 46.3525H94.2031L80.8927 0.625178H89.9483Z" fill="white"/>
<ellipse cx="23" cy="23.5" rx="23" ry="23.5" fill="white"/>
<ellipse cx="23" cy="23" rx="15" ry="16" fill="#1E1E1E"/>
<ellipse cx="23" cy="23.5" rx="10" ry="10.5" fill="#B22C23"/>
</svg>
