<svg width="121" height="47" viewBox="0 0 121 47" fill="none" xmlns="http://www.w3.org/2000/svg">
<path d="M72.159 13.7762C72.0084 11.9751 71.362 10.5759 70.2198 9.57862C69.0777 8.58131 67.5276 8.08266 65.5696 8.08266C64.2392 8.08266 63.1159 8.30594 62.1997 8.75249C61.2834 9.18417 60.5806 9.78702 60.0911 10.561C59.6141 11.3351 59.3757 12.2133 59.3757 13.1957C59.3506 14.0144 59.4949 14.7289 59.8087 15.3392C60.135 15.9495 60.5806 16.4779 61.1454 16.9245C61.7102 17.3561 62.3628 17.7357 63.1033 18.0632C63.8439 18.3758 64.6346 18.6437 65.4755 18.867L68.9396 19.8494C70.6215 20.296 72.1652 20.8914 73.571 21.6356C74.9767 22.3799 76.1941 23.2953 77.2233 24.3819C78.2525 25.4686 79.0495 26.7487 79.6143 28.2223C80.1917 29.696 80.4866 31.3854 80.4992 33.2907C80.4866 36.0892 79.8842 38.5154 78.6918 40.5696C77.512 42.6089 75.8051 44.1941 73.571 45.3254C71.3494 46.4418 68.6698 47 65.532 47C62.4193 47 59.7083 46.4344 57.3989 45.3031C55.102 44.1718 53.3072 42.4972 52.0145 40.2793C50.7342 38.0466 50.0628 35.2854 50 31.9957H57.8884C57.9762 33.5289 58.3465 34.809 58.9991 35.8361C59.6643 36.8483 60.5492 37.6149 61.6537 38.1359C62.7707 38.642 64.0321 38.895 65.4379 38.895C66.8185 38.895 68.0171 38.6568 69.0337 38.1805C70.0629 37.7042 70.8599 37.0418 71.4247 36.1933C71.9895 35.3449 72.2719 34.3699 72.2719 33.2684C72.2719 32.2413 72.0146 31.378 71.5 30.6784C70.998 29.9788 70.2575 29.3834 69.2785 28.8922C68.3121 28.4009 67.126 27.9544 65.7203 27.5525L61.5219 26.3021C58.2712 25.3644 55.7045 23.8982 53.8218 21.9036C51.9391 19.9089 51.0041 17.2222 51.0166 13.8432C51.0041 11.0746 51.6254 8.65574 52.8805 6.5867C54.1481 4.51766 55.8865 2.90261 58.0955 1.74157C60.3045 0.580523 62.8147 0 65.6261 0C68.4878 0 70.9854 0.580523 73.1191 1.74157C75.2654 2.90261 76.9347 4.51766 78.127 6.5867C79.3194 8.65574 79.9344 11.0523 79.972 13.7762H72.159Z" fill="white"/>
<path d="M92.9483 0.625178L102.267 35.3672H102.625L111.963 0.625178H121L107.708 46.3525H97.2031L83.8927 0.625178H92.9483Z" fill="white"/>
<ellipse cx="23" cy="23.5" rx="23" ry="23.5" fill="white"/>
<ellipse cx="23" cy="23" rx="15" ry="16" fill="#1E1E1E"/>
<ellipse cx="23" cy="23.5" rx="10" ry="10.5" fill="#B22C23"/>
</svg>
